<svg width="34" height="34" viewBox="0 0 34 34" fill="none" xmlns="http://www.w3.org/2000/svg">
<g id="Icon" clip-path="url(#clip0_6_404)">
<path id="Vector" d="M31.6455 21.7695C31.9893 21.8984 32.3008 22.1133 32.5801 22.4141C32.8594 22.7148 33.0742 23.0479 33.2246 23.4131C33.375 23.7783 33.4502 24.1328 33.4502 24.4766C33.4502 24.6914 33.4287 24.9062 33.3857 25.1211L31.9678 31.1797C31.8389 31.8242 31.4951 32.3721 30.9365 32.8232C30.3779 33.2744 29.7764 33.5 29.1318 33.5C25.2217 33.5 21.5049 32.748 17.9814 31.2441C14.458 29.7402 11.418 27.71 8.86133 25.1533C6.30469 22.5967 4.26367 19.5459 2.73828 16.001C1.21289 12.4561 0.450195 8.75 0.450195 4.88281V4.81836C0.450195 4.17383 0.675781 3.57227 1.12695 3.01367C1.57812 2.45508 2.12598 2.11133 2.77051 1.98242L8.8291 0.564453C9.04395 0.521484 9.25879 0.5 9.47363 0.5C10.0322 0.5 10.5693 0.671875 11.085 1.01562C11.6006 1.35938 11.9658 1.78906 12.1807 2.30469L14.9521 8.81445C15.124 9.20117 15.21 9.58789 15.21 9.97461C15.21 10.9199 14.8447 11.6934 14.1143 12.2949L11.5361 14.3574C12.0518 15.3027 12.7607 16.3018 13.6631 17.3545C14.5654 18.4072 15.543 19.3848 16.5957 20.2871C17.6484 21.1895 18.6475 21.8984 19.5928 22.4141L21.6553 19.8359C22.2568 19.1055 23.0303 18.7402 23.9756 18.7402C24.3623 18.7402 24.749 18.8047 25.1357 18.9336L31.6455 21.7695ZM29.0029 30.4062L30.3564 24.541L23.9756 21.834L20.4307 26.2168C17.251 24.7559 14.7051 23.0801 12.793 21.1895C10.8809 19.2988 9.19434 16.7422 7.7334 13.5195L12.1162 9.97461L9.40918 3.59375L3.54395 4.94727C3.54395 8.42773 4.2207 11.7256 5.57422 14.8408C6.92773 17.9561 8.74316 20.6523 11.0205 22.9297C13.2979 25.207 15.9941 27.0225 19.1094 28.376C22.2246 29.7295 25.5225 30.4062 29.0029 30.4062Z" fill="#123750"/>
</g>
<defs>
<clipPath id="clip0_6_404">
<rect width="33" height="33" fill="white" transform="matrix(1 0 0 -1 0.450195 33.5)"/>
</clipPath>
</defs>
</svg>
