<svg width="88" height="84" viewBox="0 0 88 84" fill="none" xmlns="http://www.w3.org/2000/svg">
<g id="employer logo">
<path id="Vector" d="M31.421 0.166685C30.2201 0.396994 28.3776 1.40048 27.3906 2.37107C26.7655 2.97974 26.2884 3.65421 25.8607 4.54255L25.252 5.8257L25.2027 9.889L25.1533 13.9688H28.1967H31.24L31.2894 10.876C31.3388 7.93137 31.3552 7.78332 31.7336 7.24045C31.9474 6.94434 32.4245 6.54952 32.8029 6.38502C33.4444 6.10536 34.086 6.07246 43.8083 6.07246C54.9618 6.07246 54.7973 6.05601 55.735 6.94434C56.5246 7.66816 56.5904 8.01363 56.5904 11.0899V13.9688H59.7161H62.8417V10.7115C62.8417 7.14175 62.6607 5.87505 61.9204 4.32869C61.0486 2.48622 58.5974 0.610851 56.4588 0.166685C55.406 -0.0471725 32.5561 -0.0636234 31.421 0.166685Z" fill="#123750"/>
<path id="Vector_2" d="M19.247 17.5877C10.6598 17.6535 6.33326 17.7358 6.00425 17.851C4.03018 18.5748 2.48382 19.7099 1.44743 21.2398C0.0984819 23.2468 0.0820312 23.3455 0.0820312 29.7612C0.0820312 35.1735 0.0984819 35.486 0.443945 36.4237C1.34873 38.9077 3.14185 41.2108 5.16527 42.494C8.85021 44.83 17.6677 47.8733 24.9225 49.321C27.7191 49.8803 32.4733 50.6535 33.1313 50.6535H33.559V48.2517V45.8499L34.0361 45.3728C34.7928 44.6161 36.1747 44.7313 36.8821 45.6196C37.1453 45.9322 37.1782 46.5079 37.1782 51.657C37.1782 54.7826 37.2275 57.8917 37.2769 58.5662L37.392 59.7836L40.6492 63.1559L43.9229 66.5283L47.2953 63.1559L50.6677 59.7671V52.8085V45.8499L51.1447 45.3728C51.5396 44.978 51.7699 44.8958 52.395 44.8958C53.053 44.8958 53.2504 44.978 53.7275 45.4551L54.2868 46.0144V48.4162C54.2868 49.7322 54.3362 50.818 54.4184 50.818C54.9284 50.8015 60.4064 49.8967 62.4134 49.5019C69.882 47.9885 78.2718 45.1754 82.1541 42.9052C83.9308 41.8524 85.8226 39.8454 86.6781 38.1346C87.7309 36.0124 87.8461 35.1899 87.8461 29.6625C87.8461 24.2667 87.7309 23.5758 86.5958 21.6675C85.543 19.9237 83.1905 18.1635 81.3645 17.7523C80.6242 17.5877 73.4847 17.5384 53.3162 17.5713L46.0121 17.5877L46.1273 21.4043C46.1931 23.51 46.3412 27.82 46.4728 30.995C46.7689 37.9372 47.1637 48.5149 47.2953 52.463L47.394 55.3419L45.6173 57.2008L43.8407 59.0433L42.1298 57.2173L40.4025 55.3748L40.5999 49.321C40.715 45.9815 40.9125 40.9805 41.0441 38.1839C41.1757 35.4038 41.3566 30.7976 41.4389 27.9516C41.5376 25.1057 41.6527 21.6181 41.7021 20.2034L41.8008 17.6371L39.5471 17.5384C38.3133 17.4726 36.0924 17.4397 34.6448 17.4561C33.1807 17.489 26.255 17.5384 19.247 17.5877Z" fill="#123750"/>
<path id="Vector_3" d="M0 59.175C0 70.0653 0.0493518 75.4282 0.180957 76.0204C0.27966 76.4975 0.658025 77.5174 1.01994 78.2906C1.94117 80.1824 3.63559 81.8933 5.60966 82.8639C6.36639 83.2258 7.32052 83.6206 7.73179 83.7028C8.22531 83.818 20.4481 83.8838 43.7751 83.8838C78.124 83.8838 79.111 83.8673 80.3119 83.5712C82.2531 83.0613 83.4869 82.3703 84.8852 80.9391C85.7735 80.0508 86.2999 79.3434 86.7276 78.4551C87.8627 76.1191 87.8463 76.4975 87.8463 58.9611C87.8463 50.3245 87.7969 43.2508 87.7476 43.2508C87.6982 43.2508 87.106 43.7607 86.4315 44.3859C85.0661 45.669 82.9769 46.7712 78.7162 48.4821C71.8563 51.2129 62.1011 53.6311 55.5702 54.2069L54.287 54.322L54.2706 57.7931V61.2642L50.125 65.4756C47.8384 67.7951 45.6834 69.8843 45.3379 70.1311C44.4167 70.7397 43.2158 70.7397 42.3439 70.0817C41.9984 69.835 39.8763 67.7622 37.639 65.492L33.5593 61.3629V57.826V54.3056L32.4571 54.1904C20.8265 53.0224 5.21484 47.9227 0.674475 43.8265L0 43.2179V59.175Z" fill="#123750"/>
</g>
</svg>
