<svg width="34" height="34" viewBox="0 0 34 34" fill="none" xmlns="http://www.w3.org/2000/svg">
<g id="Icon" clip-path="url(#clip0_6_384)">
<path id="Vector" d="M33.2227 30.7285C33.6094 31.0723 33.6094 31.4375 33.2227 31.8242L31.8047 33.2422C31.418 33.6289 31.0527 33.6289 30.709 33.2422L22.9102 25.4434C22.7383 25.2715 22.6523 25.0996 22.6523 24.9277V24.0254C20.1172 26.2168 17.1953 27.3125 13.8867 27.3125C10.1914 27.3125 7.0332 26.002 4.41211 23.3809C1.79102 20.7598 0.480469 17.6016 0.480469 13.9062C0.480469 10.2109 1.79102 7.05273 4.41211 4.43164C7.0332 1.81055 10.1914 0.5 13.8867 0.5C17.582 0.5 20.7402 1.81055 23.3613 4.43164C25.9824 7.05273 27.293 10.2109 27.293 13.9062C27.293 17.2148 26.1973 20.1367 24.0059 22.6719H24.9082C25.123 22.6719 25.2949 22.7578 25.4238 22.9297L33.2227 30.7285ZM6.60352 21.1895C6.60352 21.1895 7.1084 21.6943 8.11816 22.7041C9.12793 23.7139 11.0508 24.2188 13.8867 24.2188C16.7227 24.2188 19.1504 23.209 21.1699 21.1895C23.1895 19.1699 24.1992 16.7422 24.1992 13.9062C24.1992 11.0703 23.1895 8.64258 21.1699 6.62305C19.1504 4.60352 16.7227 3.59375 13.8867 3.59375C11.0508 3.59375 8.62305 4.60352 6.60352 6.62305C4.58398 8.64258 3.57422 11.0703 3.57422 13.9062C3.57422 16.7422 4.58398 19.1699 6.60352 21.1895Z" fill="#123750"/>
</g>
<defs>
<clipPath id="clip0_6_384">
<rect width="33" height="33" fill="white" transform="matrix(1 0 0 -1 0.480469 33.5)"/>
</clipPath>
</defs>
</svg>
