<svg width="78" height="92" viewBox="0 0 78 92" fill="none" xmlns="http://www.w3.org/2000/svg">
<g id="seeker logo">
<path id="Vector" d="M30.91 0.0943985C17.4911 1.72011 6.35908 10.6064 1.9366 23.2401C0.655321 26.8911 -0.143756 32.1815 0.0215701 35.9289C0.366 43.5339 2.92856 50.2847 7.76436 56.3605C12.545 62.3673 18.6483 66.3352 26.088 68.2778C28.9261 69.0079 30.4141 69.1733 34.2166 69.1733C37.4267 69.1733 37.7986 69.1457 39.7275 68.7737C42.3038 68.2778 44.6597 67.6164 46.3818 66.8863C47.1258 66.5832 47.8147 66.2938 47.9387 66.2663C48.1315 66.1974 49.0822 67.1067 50.9697 69.1457L51.5896 69.8208L54.7446 66.776C56.4943 65.109 57.9271 63.6762 57.9547 63.5935C57.9822 63.5246 57.6103 62.9873 57.1281 62.4224C56.6596 61.8438 56.2463 61.334 56.2188 61.2652C56.1912 61.1963 56.6321 60.7416 57.1969 60.2456C59.112 58.5235 61.9363 55.0379 63.3691 52.5993C66.3037 47.6257 67.9569 42.4042 68.3151 36.8795C69.0316 26.0782 64.4851 15.0564 56.4392 8.14029C51.7549 4.11734 45.5139 1.25169 39.3141 0.273506C37.6471 0.0255127 32.4806 -0.0984802 30.91 0.0943985ZM36.7378 5.31596C41.6425 5.83949 46.2303 7.4652 49.9915 10.0002C57.872 15.3182 62.5287 23.7636 62.9007 33.4214C63.0936 38.4363 61.9639 43.6855 59.7733 47.9288C58.1613 51.0563 56.5907 53.2606 54.4139 55.4512C50.1843 59.6946 45.6241 62.1056 39.3968 63.3868C35.7734 64.1308 30.5243 63.9104 26.5151 62.8495C21.886 61.6234 17.4911 58.9781 13.9641 55.3134C9.85849 51.0425 7.17194 46.0276 6.12487 40.6407C4.78848 33.7934 5.57378 27.8141 8.59099 21.6419C10.6025 17.5501 13.3028 14.1334 16.5818 11.5157C21.1833 7.86474 25.8538 5.97726 32.15 5.26085C33.0868 5.16441 35.4841 5.19196 36.7378 5.31596Z" fill="#123750"/>
<path id="Vector_2" d="M32.0808 7.61656C29.78 7.96099 28.7467 8.15387 27.4654 8.48453C21.7066 9.97247 16.113 14.1056 12.4483 19.5752C10.7261 22.1653 9.04532 26.078 8.45291 28.9437C8.20492 30.1698 7.9707 32.8288 7.9707 34.5234C7.9707 36.9207 8.72845 41.1916 9.40353 42.652C9.52753 42.9138 9.58264 43.0102 9.5413 42.8586C9.38975 42.3627 9.27954 38.078 9.37598 36.2456C9.56886 32.4431 10.6435 28.613 12.5998 24.7003C16.5952 16.7508 24.338 11.1022 33.0177 9.79336C34.726 9.53159 38.5285 9.53159 40.0716 9.77958C43.6537 10.372 45.9544 11.2675 48.765 13.1412C51.2587 14.822 53.5181 17.0126 55.6123 19.8232C56.9349 21.5866 58.5744 24.8243 59.1806 26.8358C59.401 27.5797 59.5663 27.7313 59.4285 27.0424C58.9877 24.9621 57.4997 21.5866 56.0807 19.4374C53.0773 14.8909 48.2277 11.0195 43.1577 9.11828C41.7111 8.58097 39.1623 7.96099 37.3575 7.72678C35.9384 7.5339 32.9625 7.47879 32.0808 7.61656Z" fill="#123750"/>
<path id="Vector_3" d="M33.0458 13.7339C30.4281 14.037 28.3891 15.1392 26.6256 17.192C25.3168 18.7213 24.5039 21.1323 24.5039 23.502C24.5039 25.2792 24.7932 26.4916 25.551 28.0347C26.4327 29.8119 28.0309 31.4652 29.6979 32.2918C31.3374 33.1047 32.536 33.3251 34.6715 33.2562C36.8621 33.1736 38.1984 32.774 39.7139 31.7545C41.4912 30.5697 42.6485 29.0404 43.4338 26.8498C43.8333 25.7063 43.8609 25.5134 43.8609 23.7086C43.8609 21.5456 43.6542 20.6225 42.7174 18.68C42.0009 17.2058 40.2926 15.4974 38.7358 14.7259C37.0136 13.8579 35.0159 13.5135 33.0458 13.7339Z" fill="#123750"/>
<path id="Vector_4" d="M28.4298 35.6808C28.1956 35.8461 28.237 35.9563 29.1325 37.3891C29.656 38.2295 30.3173 39.2904 30.5929 39.7588L31.1026 40.5854H34.1887H37.2748L38.7214 38.1744C40.0716 35.9425 40.168 35.7497 39.92 35.6119C39.7134 35.5017 39.4791 35.5705 38.7903 35.9563C37.3299 36.7692 36.1175 37.0585 34.2163 37.0447C31.9981 37.0447 30.4137 36.6452 29.1049 35.7772C28.7467 35.5292 28.6503 35.5154 28.4298 35.6808Z" fill="#123750"/>
<path id="Vector_5" d="M22.7127 38.4224C19.3787 39.993 18.9516 40.241 17.9872 41.1917C17.133 42.0321 16.3615 43.4649 16.1135 44.6911C16.017 45.1182 15.9619 47.047 15.9619 49.4029V53.3983L16.9814 54.2249C17.5325 54.6795 18.4969 55.4235 19.1169 55.8781L20.2328 56.7048L20.2466 55.148C20.2604 54.3075 20.2604 52.6267 20.2328 51.4281L20.2053 49.2651H20.839H21.4728L21.5003 53.4258L21.5417 57.6003L22.947 58.3029C25.5233 59.5842 29.1054 60.5624 32.3292 60.8655C36.4899 61.2513 41.6151 60.2593 45.4451 58.3305L46.8917 57.6003L46.9606 53.4671L47.0295 49.334L47.553 49.2926L48.0628 49.2513V52.9712C48.0628 55.024 48.1041 56.7048 48.173 56.7048C48.2832 56.7048 51.6449 54.1284 52.1684 53.6462C52.4715 53.3569 52.4715 53.3156 52.4715 49.6509C52.4715 45.4901 52.3337 44.4431 51.6173 43.0102C51.08 41.9218 50.1294 40.8197 49.2476 40.241C48.4899 39.7313 42.855 37.0585 42.7586 37.1549C42.6621 37.2514 38.2534 54.6244 38.1156 55.4648C38.0743 55.699 38.033 55.7404 37.9779 55.6026C37.909 55.4235 36.3797 46.4683 36.1317 44.7599C36.0628 44.3191 36.1455 43.9195 36.4762 43.0102L36.9033 41.8254H34.2029C31.6817 41.8254 31.5026 41.8392 31.599 42.0596C31.6541 42.1974 31.8608 42.7347 32.0399 43.2582L32.3843 44.2089L31.4613 49.8024C30.9515 52.8747 30.5106 55.4924 30.4693 55.6026C30.4142 55.7266 30.3315 55.5888 30.2626 55.2582C29.9182 53.7978 26.3913 39.7864 26.0606 38.5464C25.8539 37.7749 25.6197 37.1412 25.5371 37.1549C25.4682 37.1549 24.1869 37.7336 22.7127 38.4224Z" fill="#123750"/>
<path id="Vector_6" d="M57.789 66.3075C53.0359 70.9505 51.6168 72.3695 51.4928 72.5762C51.2724 72.9895 51.6995 73.5681 53.9727 75.9103C55.1576 77.1226 58.4503 80.5118 61.2747 83.4326C64.099 86.3534 66.7718 89.0813 67.2126 89.4946C68.673 90.8998 70.4778 91.4785 72.2826 91.1616C74.0461 90.8447 75.355 90.0457 76.3882 88.6266C77.89 86.5876 77.9451 83.4464 76.526 81.4487C76.278 81.1043 73.3848 78.0457 70.0921 74.6703C66.7993 71.2949 63.2724 67.6715 62.2528 66.6106C59.8281 64.1032 60.0347 64.117 57.789 66.3075Z" fill="#123750"/>
</g>
</svg>
