<svg width="110" height="111" viewBox="0 0 110 111" fill="none" xmlns="http://www.w3.org/2000/svg">
	<path d="M49.6558 0.201698C45.8052 0.531754 40.4583 1.78596 35.9916 3.41422C28.5544 6.09866 20.6771 11.4015 14.8901 17.6285C6.7048 26.43 1.66598 37.0797 0.345767 48.3235C-0.336345 54.1105 0.0157128 61.6577 1.1819 67.0046L1.66598 69.1609L17.2885 69.2269C25.8919 69.2709 35.9036 69.2269 39.5782 69.1389L46.2232 69.0069V60.5575V52.1082H50.624H55.0247V65.7064C55.0247 80.8448 55.0027 80.4928 56.5209 82.2531C56.961 82.7811 57.8411 83.5293 58.4792 83.9473L59.6454 84.6955V89.4042V94.135H62.1758H64.7062V89.3382C64.6842 86.7198 64.5962 84.1454 64.5082 83.6173C64.2662 82.4291 63.386 81.2849 61.8238 80.2067C59.7114 78.7325 59.8875 81.0869 59.8655 53.6484L59.8435 29.5545L57.4451 28.5203L55.0247 27.5081L54.9807 37.3217L54.9146 47.1573L30.2046 47.2234L5.4946 47.2674L5.62663 46.4532C5.91267 44.715 6.00069 44.2749 6.19872 43.4607L6.41876 42.6466H26.31H46.2232V37.6298V32.635L47.3894 31.9309C51.3281 29.5765 52.6923 25.2638 50.8 21.3251C49.9198 19.4988 48.5556 18.1346 46.7073 17.2765C45.4091 16.6604 45.013 16.5724 43.3628 16.5724C41.7785 16.5944 41.2724 16.6824 40.1062 17.2105C38.346 18.0246 36.5417 19.9169 35.9036 21.6332C35.3095 23.1954 35.2875 25.8139 35.8155 27.4861C36.2996 28.9604 38.2579 31.1167 39.9522 31.9969L41.1624 32.635V35.0994V37.5858H39.1821H37.2018V35.1654V32.745H32.581H27.9823L27.9163 35.2094L27.8502 37.6958L18.1907 37.7618C12.8658 37.7838 8.44308 37.7398 8.35507 37.6518C7.87099 37.1677 11.7216 29.8185 14.4501 25.9899C15.6163 24.3616 19.1368 20.423 21.1612 18.4867C23.9336 15.8682 28.8184 12.4137 32.471 10.4994C39.2921 6.91279 47.3454 5.02048 55.7508 5.02048C60.0195 5.02048 61.1857 5.17451 61.1857 5.68059C61.1857 5.94463 60.9436 6.12066 60.4375 6.20867C59.0953 6.47272 57.027 7.66091 55.7068 8.98112C52.6923 11.9516 51.8341 16.5944 53.6384 20.357C54.3866 21.9852 56.4769 24.1636 58.0392 24.9777C59.8435 25.9239 61.3397 26.2319 63.6501 26.0999C66.2465 25.9459 68.2708 24.9997 70.0531 23.0854C72.6715 20.247 73.4637 16.8364 72.3195 13.2718C71.4173 10.4774 69.7011 8.34303 67.3467 7.08882C65.1683 5.96664 69.063 6.91279 72.9356 8.47504C83.9154 12.8758 93.3329 21.0831 98.8118 31.0067C101.298 35.5174 103.014 40.0502 104.005 44.715C104.291 46.1232 104.533 47.3774 104.533 47.4874C104.533 47.6194 103.763 47.7074 102.684 47.7074H100.858L100.836 46.4092C100.792 43.9668 100.154 42.4706 98.3497 40.7323C94.7411 37.2777 89.0202 37.9818 86.2698 42.2285C83.7173 46.1892 85.1696 51.25 89.5043 53.4504C90.8465 54.1325 91.1545 54.1985 92.9148 54.1985H94.8511V56.3328V58.4892H86.5558C78.2605 58.4892 78.2384 58.4892 77.1383 59.0173C76.5442 59.3033 75.664 59.9194 75.224 60.3815C73.6397 62.0538 73.7277 60.7116 73.7277 82.3411V101.814L70.9553 102.716C67.1706 103.949 61.8898 105.137 60.2175 105.137C59.9095 105.137 59.8655 104.675 59.8655 101.836V98.5357H57.4451H55.0247V101.946V105.357H54.3206C53.4184 105.357 48.6656 104.961 47.2794 104.785L46.2232 104.631V96.5334V88.4141H31.9209H17.6406L17.1565 87.908C16.5404 87.2699 14.098 84.0794 14.098 83.9253C14.098 83.8593 21.3372 83.7933 30.1606 83.7933H46.2232V78.8425V73.8917H24.7697C12.6678 73.8917 3.31625 73.9797 3.31625 74.0897C3.31625 74.1997 3.6463 75.1239 4.06437 76.1361C8.17904 86.3677 15.7703 95.4552 25.3858 101.726C27.8062 103.31 33.0871 105.929 35.9916 107.007C38.698 108.019 44.1109 109.427 47.0154 109.89C50.0959 110.374 57.181 110.55 60.4155 110.22C70.5812 109.185 80.7689 105.049 89.0862 98.6017C97.0735 92.3967 104.357 82.165 107.283 73.0556C108.977 67.7747 109.77 62.9999 109.968 56.8389C110.32 45.6831 107.811 36.1115 101.98 26.43C97.3816 18.7727 89.5703 11.3795 81.3189 6.82478C76.8962 4.40438 70.7352 2.05 66.1365 1.05984C61.5597 0.0916824 54.9146 -0.260376 49.6558 0.201698ZM65.2783 11.9516C65.9384 12.3257 66.4665 12.8978 66.9066 13.6679C68.7769 16.9464 66.4665 20.8851 62.6819 20.8631C59.1833 20.8411 56.873 17.2765 58.3032 14.13C58.7873 13.0518 60.2835 11.7316 61.3617 11.4235C62.5719 11.0935 64.1782 11.3135 65.2783 11.9516ZM45.2331 22.0733C48.1155 23.7455 46.8613 27.9042 43.4728 27.9042C41.7565 27.9042 40.2823 26.43 40.2823 24.7137C40.2823 22.1833 42.9887 20.753 45.2331 22.0733ZM94.191 43.6588C95.8633 44.3189 96.5894 46.2112 95.7753 47.7074C95.2912 48.5876 93.927 49.4677 93.0248 49.4677C91.5946 49.4677 90.1644 48.2795 89.8783 46.8493C89.6583 45.7931 90.4944 44.3189 91.6166 43.7688C92.7388 43.2187 93.0469 43.1967 94.191 43.6588ZM40.9644 53.0323C40.9864 53.5604 41.0084 54.5726 41.0304 55.2987L41.0524 56.6189L39.1381 56.6849L37.2018 56.7509V54.4185V52.1082H39.0721H40.9424L40.9644 53.0323ZM13.6359 56.1568C16.0123 57.389 15.0442 60.9096 12.3377 60.9096C11.4136 60.9096 10.5114 60.4255 10.1374 59.6994C8.92716 57.455 11.3696 54.9906 13.6359 56.1568ZM31.4368 56.8609C32.0969 57.323 32.647 58.4232 32.493 59.0173C32.1409 60.4475 30.6007 61.2396 29.2585 60.6895C28.3783 60.3155 27.9603 59.6774 27.9603 58.6432C27.9603 56.9489 30.0286 55.8708 31.4368 56.8609ZM94.8511 74.5078V85.4656L93.6629 86.8958C93.0248 87.6659 91.9467 88.8981 91.2646 89.6243L90.0324 90.9445L90.0104 77.2362V63.55H92.4307H94.8511V74.5078Z" fill="white"/>
	<path d="M27.6303 20.0271C27.1463 20.5992 27.0583 20.8852 27.1683 21.5014C27.2343 21.9634 27.5203 22.4915 27.8504 22.7776C29.4346 24.1638 31.679 22.3155 30.7329 20.4452C30.0287 19.103 28.5765 18.9049 27.6303 20.0271Z" fill="white"/>
	<path d="M77.8419 21.8753C76.3016 22.3594 74.3653 24.2957 73.7492 25.99C73.1551 27.6403 73.1331 29.7086 73.7272 31.2488C74.0132 31.997 74.0793 32.481 73.9472 32.6131C73.8152 32.7451 73.7272 33.9553 73.7272 35.3195V37.8059H71.4168H69.1064V42.4267V47.0474H71.4168H73.7272V48.9397V50.832L75.3335 50.678C77.0277 50.502 77.5118 50.348 78.3039 49.6218C78.788 49.1818 78.788 49.1378 78.788 42.2946V35.4295H80.1742C84.795 35.4075 88.1615 31.3149 87.0614 27.0682C86.4673 24.7578 85.059 23.0415 82.9907 22.1174C81.6705 21.5233 79.2501 21.4132 77.8419 21.8753ZM81.0764 26.232C82.7927 26.9581 83.2988 28.8505 82.0886 30.0827C81.1864 30.9628 80.1302 31.1608 79.1841 30.6107C78.3039 30.1047 77.6658 28.9165 77.8419 28.0583C77.9959 27.3102 79.0521 26.21 79.7342 26.078C79.9982 26.034 80.2403 25.968 80.2843 25.946C80.3063 25.946 80.6583 26.056 81.0764 26.232Z" fill="white"/>
	<path d="M19.4888 27.5741C18.1246 28.0581 17.3984 29.0703 17.3984 30.4785C17.3984 31.4467 17.5085 31.7547 18.0805 32.4148C18.9607 33.405 20.1709 33.7791 21.3371 33.427C22.6133 33.0529 23.5594 31.8648 23.5594 30.6766C23.5594 29.2243 22.3272 27.6841 20.919 27.398C20.611 27.332 19.9729 27.42 19.4888 27.5741Z" fill="white"/>
</svg>