<svg width="38" height="34" viewBox="0 0 38 34" fill="none" xmlns="http://www.w3.org/2000/svg">
<g id="Icon" clip-path="url(#clip0_6_394)">
<path id="Vector" d="M37.0879 11.2637C37.3887 11.6074 37.5391 12.0049 37.5391 12.4561C37.5391 12.9072 37.3887 13.2832 37.0879 13.584L35.2832 15.3887L30.9004 11.0059L32.7051 9.20117C33.0059 8.90039 33.3818 8.75 33.833 8.75C34.2842 8.75 34.6816 8.90039 35.0254 9.20117L37.0879 11.2637ZM21.6191 20.2227L29.4824 12.4238L33.8652 16.8066L25.1641 25.5723V30.4062C25.1641 31.2656 24.8633 31.9961 24.2617 32.5977C23.6602 33.1992 22.9297 33.5 22.0703 33.5H3.50781C2.64844 33.5 1.91797 33.1992 1.31641 32.5977C0.714844 31.9961 0.414062 31.2656 0.414062 30.4062V3.59375C0.414062 3.03516 0.553711 2.51953 0.833008 2.04688C1.1123 1.57422 1.48828 1.19824 1.96094 0.918945C2.43359 0.639648 2.94922 0.5 3.50781 0.5H16.6562C17.5156 0.5 18.2461 0.800781 18.8477 1.40234L24.2617 6.81641C24.8633 7.41797 25.1641 8.14844 25.1641 9.00781V13.7773L22.0703 16.8711V11.8438H15.3672C14.9375 11.8438 14.5723 11.6934 14.2715 11.3926C13.9707 11.0918 13.8203 10.7266 13.8203 10.2969V3.59375H3.50781V30.4062H22.0703V27.3125H18.0098C16.8496 27.3125 16.0117 26.7969 15.4961 25.7656C15.3672 25.5078 15.1523 25.3789 14.8516 25.3789C14.5508 25.3789 14.3359 25.5078 14.207 25.7656L13.6914 26.7324C13.5195 27.1191 13.2188 27.3125 12.7891 27.3125C12.7461 27.3125 12.7246 27.3125 12.7246 27.3125C12.252 27.2695 11.9512 27.0332 11.8223 26.6035L10.7266 23.3809L10.0176 25.3789C9.8457 25.9805 9.5127 26.4531 9.01855 26.7969C8.52441 27.1406 7.97656 27.3125 7.375 27.3125H6.60156C6.30078 27.3125 6.05371 27.2158 5.86035 27.0225C5.66699 26.8291 5.57031 26.582 5.57031 26.2812C5.57031 25.9805 5.66699 25.7334 5.86035 25.54C6.05371 25.3467 6.30078 25.25 6.60156 25.25H7.375C7.71875 25.25 7.95508 25.0781 8.08398 24.7344L9.24414 21.2539C9.50195 20.5234 9.99609 20.1582 10.7266 20.1582C11.457 20.1582 11.9512 20.5234 12.209 21.2539L13.1113 23.8965C13.7129 23.3809 14.4756 23.2197 15.3994 23.4131C16.3232 23.6064 16.9785 24.0898 17.3652 24.8633C17.4941 25.1211 17.709 25.25 18.0098 25.25H19.6211L20.5879 21.9629C20.7598 21.2754 21.1035 20.6953 21.6191 20.2227ZM16.9141 3.85156V8.75H21.8125L16.9141 3.85156Z" fill="#123750"/>
</g>
<defs>
<clipPath id="clip0_6_394">
<rect width="37.13" height="33" fill="white" transform="matrix(1 0 0 -1 0.411133 33.5)"/>
</clipPath>
</defs>
</svg>
